<svg width="8" height="8" viewBox="0 0 8 8" fill="none" xmlns="http://www.w3.org/2000/svg">
<path d="M2.94446 1.78398L2.13177 0.429881C2.55902 0.203387 3.02319 0.0602807 3.49951 0.000428819V1.59558C3.30524 1.63608 3.11804 1.69942 2.94446 1.78398Z" fill="#C0C0C0"/>
<path d="M0.415894 2.1749C0.640808 1.72921 0.940613 1.33065 1.30573 0.998676L2.14404 2.39551C2.03815 2.51887 1.94342 2.65232 1.86133 2.79396L0.817749 2.36435L0.415894 2.1749Z" fill="#C0C0C0"/>
<path d="M6.43323 3.99026C6.43323 2.8081 5.60205 1.82697 4.49951 1.59557V0C6.46851 0.246912 7.99951 1.93754 7.99951 3.98028C7.99951 4.42941 7.92999 4.86299 7.79089 5.27416L6.33649 4.67543C6.401 4.46002 6.43323 4.23163 6.43323 3.99026Z" fill="#C0C0C0"/>
<path d="M7.3457 6.17572L5.85358 5.56147C5.42468 6.0787 4.78638 6.41205 4.06659 6.43296L3.65063 7.98454C3.76428 7.99468 3.87878 8 3.99457 8C5.36719 8 6.61951 7.30407 7.3457 6.17572Z" fill="#C0C0C0"/>
<path d="M3.07733 6.2603L2.66913 7.78306C1.62122 7.41319 0.770081 6.61349 0.3255 5.57921L1.81036 5.06515C2.06842 5.60581 2.5249 6.0325 3.07733 6.2603Z" fill="#C0C0C0"/>
<path d="M1.56805 4.08733C1.56659 4.05186 1.5658 4.01617 1.5658 3.98028C1.5658 3.90702 1.56891 3.83376 1.5752 3.76099L0.0866089 3.1482C0.0285645 3.42183 -0.000488281 3.70206 -0.000488281 3.99026C-0.000488281 4.20076 0.0155029 4.40897 0.0474243 4.61379L1.56805 4.08733Z" fill="#C0C0C0"/>
</svg>
