<svg width="16" height="16" viewBox="0 0 16 16" fill="none" xmlns="http://www.w3.org/2000/svg">
<path fill-rule="evenodd" clip-rule="evenodd" d="M0.588237 0H15.4118C15.5678 0 15.7174 0.0637716 15.8277 0.177287C15.938 0.290802 16 0.444763 16 0.605296V12.0857C16 12.2463 15.938 12.4002 15.8277 12.5138C15.7174 12.6273 15.5678 12.6911 15.4118 12.6911H9.98039L12.5294 15.1122L11.7451 16L8.2353 12.6911H7.7647L4.23529 16L3.45098 15.1122L6.01961 12.6911H0.588237C0.432226 12.6911 0.282605 12.6273 0.17229 12.5138C0.0619736 12.4002 0 12.2463 0 12.0857V0.605296C0 0.444763 0.0619736 0.290802 0.17229 0.177287C0.282605 0.0637716 0.432226 0 0.588237 0ZM6.76923 2.66667H9.23077V10H6.76923V2.66667ZM10.8718 4.66667H13.3333V10H10.8718V4.66667ZM5.1282 6.66667H2.66667V10H5.1282V6.66667Z" fill="#2D2D2D"/>
</svg>
