<svg width="8" height="8" viewBox="0 0 8 8" fill="none" xmlns="http://www.w3.org/2000/svg">
<path fill-rule="evenodd" clip-rule="evenodd" d="M0.29363 0H7.70539C7.7834 0 7.85821 0.0318858 7.91337 0.0886434C7.96852 0.145401 7.99951 0.222382 7.99951 0.302648V6.04287C7.99951 6.12314 7.96852 6.20012 7.91337 6.25688C7.85821 6.31364 7.7834 6.34553 7.70539 6.34553H4.98971L6.26422 7.55612L5.87206 8L4.11716 6.34553H3.88186L2.11716 8L1.725 7.55612L3.00932 6.34553H0.29363C0.215624 6.34553 0.140814 6.31364 0.0856565 6.25688C0.0304985 6.20012 -0.000488281 6.12314 -0.000488281 6.04287V0.302648C-0.000488281 0.222382 0.0304985 0.145401 0.0856565 0.0886434C0.140814 0.0318858 0.215624 0 0.29363 0ZM3.38413 1.33333H4.6149V5H3.38413V1.33333ZM5.43541 2.33333H6.66618V5H5.43541V2.33333ZM2.56361 3.33333H1.33285V5H2.56361V3.33333Z" fill="#C0C0C0"/>
</svg>
