<svg width="16" height="16" viewBox="0 0 16 16" fill="none" xmlns="http://www.w3.org/2000/svg">
<path d="M5.88989 3.56795L4.26453 0.859762C5.11902 0.406774 6.04736 0.120561 7 0.000857639V3.19115C6.61145 3.27216 6.23706 3.39885 5.88989 3.56795Z" fill="#2D2D2D"/>
<path d="M0.832764 4.3498C1.28259 3.45842 1.8822 2.66131 2.61243 1.99735L4.28906 4.79101C4.07727 5.03773 3.88782 5.30465 3.72363 5.58793L1.63647 4.72869L0.832764 4.3498Z" fill="#2D2D2D"/>
<path d="M12.8674 7.98052C12.8674 5.61621 11.2051 3.65395 9 3.19113V0C12.938 0.493824 16 3.87508 16 7.96056C16 8.85883 15.861 9.72599 15.5828 10.5483L12.674 9.35086C12.803 8.92004 12.8674 8.46326 12.8674 7.98052Z" fill="#2D2D2D"/>
<path d="M14.6924 12.3514L11.7081 11.1229C10.8503 12.1574 9.57373 12.8241 8.13416 12.8659L7.30225 15.9691C7.52954 15.9894 7.75854 16 7.99011 16C10.7354 16 13.24 14.6081 14.6924 12.3514Z" fill="#2D2D2D"/>
<path d="M6.15564 12.5206L5.33923 15.5661C3.24341 14.8264 1.54114 13.227 0.651978 11.1584L3.6217 10.1303C4.13782 11.2116 5.05078 12.065 6.15564 12.5206Z" fill="#2D2D2D"/>
<path d="M3.13708 8.17466C3.13416 8.10371 3.13257 8.03233 3.13257 7.96056C3.13257 7.81405 3.13879 7.66752 3.15137 7.52197L0.174194 6.29639C0.0581055 6.84366 0 7.40412 0 7.98051C0 8.40153 0.0319824 8.81794 0.0958252 9.22757L3.13708 8.17466Z" fill="#2D2D2D"/>
</svg>
